<?xml version="1.0" standalone="no"?><!DOCTYPE svg PUBLIC "-//W3C//DTD SVG 1.1//EN" "http://www.w3.org/Graphics/SVG/1.1/DTD/svg11.dtd"><svg t="1592593744081" class="icon" viewBox="0 0 1024 1024" version="1.1" xmlns="http://www.w3.org/2000/svg" p-id="1038" width="200" height="200" xmlns:xlink="http://www.w3.org/1999/xlink"><defs><style type="text/css"></style></defs><path d="M177.50016 307.2l614.4 0c11.30496 0 20.48-9.15456 20.48-20.48s-9.17504-20.48-20.48-20.48l-614.4 0c-11.30496 0-20.48 9.15456-20.48 20.48S166.17472 307.2 177.50016 307.2z" p-id="1039" fill="#ffffff"></path><path d="M177.50016 757.76l614.4 0c11.30496 0 20.48-9.15456 20.48-20.48s-9.17504-20.48-20.48-20.48l-614.4 0c-11.30496 0-20.48 9.15456-20.48 20.48S166.17472 757.76 177.50016 757.76z" p-id="1040" fill="#ffffff"></path><path d="M177.50016 532.48l614.4 0c11.30496 0 20.48-9.15456 20.48-20.48s-9.17504-20.48-20.48-20.48l-614.4 0c-11.30496 0-20.48 9.15456-20.48 20.48S166.17472 532.48 177.50016 532.48z" p-id="1041" fill="#ffffff"></path></svg>