<svg id="Layer_2" data-name="Layer 2" xmlns="http://www.w3.org/2000/svg" viewBox="0 0 2790.29 1428.26"><defs><style>.cls-1{fill:#c5d6e2;}</style></defs><ellipse class="cls-1" cx="383.16" cy="1020.62" rx="131.02" ry="175.68"/><ellipse class="cls-1" cx="201.65" cy="1054.94" rx="117.92" ry="141.35"/><ellipse class="cls-1" cx="240.81" cy="1156.1" rx="240.81" ry="152.78"/><ellipse class="cls-1" cx="439.8" cy="1122.99" rx="240.81" ry="164.67"/><ellipse class="cls-1" cx="298.12" cy="1094.38" rx="131.02" ry="175.68"/><ellipse class="cls-1" cx="1257.83" cy="175.68" rx="131.02" ry="175.68"/><ellipse class="cls-1" cx="1076.32" cy="210" rx="117.92" ry="141.35"/><ellipse class="cls-1" cx="1115.49" cy="311.16" rx="240.81" ry="152.78"/><ellipse class="cls-1" cx="1314.48" cy="278.05" rx="240.81" ry="164.67"/><ellipse class="cls-1" cx="1172.8" cy="249.44" rx="131.02" ry="175.68"/><ellipse class="cls-1" cx="2492.83" cy="1140" rx="131.02" ry="175.68"/><ellipse class="cls-1" cx="2311.32" cy="1174.32" rx="117.92" ry="141.35"/><ellipse class="cls-1" cx="2350.49" cy="1275.48" rx="240.81" ry="152.78"/><ellipse class="cls-1" cx="2549.48" cy="1242.37" rx="240.81" ry="164.67"/><ellipse class="cls-1" cx="2407.79" cy="1213.76" rx="131.02" ry="175.68"/></svg>