<?xml version="1.0" encoding="utf-8"?>
<!-- Generator: Adobe Illustrator 24.2.0, SVG Export Plug-In . SVG Version: 6.00 Build 0)  -->
<svg version="1.1" id="Layer_1" xmlns="http://www.w3.org/2000/svg" xmlns:xlink="http://www.w3.org/1999/xlink" x="0px" y="0px"
	 viewBox="0 0 600 262.1" style="enable-background:new 0 0 600 262.1;" xml:space="preserve">
<style type="text/css">
	.st0{fill:#020202;}
</style>
<g id="hulplijnen">
	<path class="st0" d="M391.6,42.9c12.6,10.3,25.1,20.8,37.7,31.1c2.6,2.3,6.5,2.3,9.1,0c12.6-10.3,25-20.8,37.7-31.1H467
		c12.6,10.3,25,20.8,37.7,31.1c2.6,2.3,6.5,2.3,9.1,0c12.6-10.3,25-20.8,37.7-31.1c6.4-5.2-2.7-14.6-9.1-9.1
		c-12.6,10.3-25,20.8-37.7,31.1h9.1c-12.6-10.3-25-20.8-37.7-31.1c-2.6-2.3-6.5-2.3-9.1,0c-12.6,10.3-25,20.8-37.7,31.1h9.1
		c-12.6-10.3-25-20.8-37.7-31.1C394.6,28.4,385.2,37.7,391.6,42.9L391.6,42.9z"/>
	<path class="st0" d="M448.5,87.6l-47.2,47.2c-7.6,7.6,4.1,19.2,11.6,11.6c15.7-15.7,31.5-31.4,47.2-47.2
		C467.8,91.6,455.9,80,448.5,87.6z"/>
	<path class="st0" d="M473.2,194.9l-60.6-60.6c-7.6-7.6-19.2,4.1-11.6,11.6l60.6,60.6C469.1,214.2,480.8,202.5,473.2,194.9
		L473.2,194.9z"/>
	<path class="st0" d="M493.8,121.2l-32.6-32.6c-7.6-7.6-19.2,4.1-11.7,11.7l32.6,32.6C489.7,140.4,501.4,128.7,493.8,121.2
		L493.8,121.2z"/>
	<path class="st0" d="M467,161.9l28.2-28.2c7.6-7.6-4.1-19.2-11.6-11.6l-28.2,28.2C447.8,157.7,459.4,169.5,467,161.9z"/>
	<path class="st0" d="M527.2,131.6l-64.5,64.5c-7.6,7.6,4.1,19.2,11.6,11.6l64.5-64.5C546.4,135.7,534.8,124.1,527.2,131.6z"/>
	<path class="st0" d="M466,80.2l62.1,62.1c7.6,7.6,19.2-4.1,11.7-11.6l-62.1-62.2C470.1,61,458.5,72.6,466,80.2z"/>
</g>
<g id="Laag_2">
	<path class="st0" d="M57.9,122.1l57.9,72.2c1.1,1.4,1.7,3.2,1.8,5c0,4.4-3.6,8-8,8c-2.5,0-4.8-1.2-6.4-3.1L54,142.5v56.9
		c0,4.4-3.6,8-8,8c-0.1,0-0.1,0-0.2,0c-4.4-0.1-7.9-3.6-8-8v-160c0.2-4.3,3.7-7.7,8-7.8c1.6,0,3.2,0.4,4.5,1.4l63.5,40.6
		c2.2,1.5,3.6,3.9,3.7,6.6c0,2.8-1.5,5.5-3.9,7L57.9,122.1z M54.2,54.2v51.6l40.6-25.4L54.2,54.2z"/>
	<path class="st0" d="M208.4,97.9c1.5,1.4,2.3,3.4,2.3,5.4v96.1c0,4.5-3.6,8.1-8.1,8.1c-4.4,0-8-3.6-8.1-8.1v-40.8L147,111.1v88.4
		c0.1,4.4-3.4,7.9-7.8,8c-0.1,0-0.2,0-0.2,0c-4.4,0.1-8.1-3.4-8.2-7.8c0-0.1,0-0.1,0-0.2V39.6c0-3.2,2-6.1,5-7.2
		c3-1.4,6.5-0.6,8.6,1.8L208.4,97.9z M147.2,88.3l47.6,47.6v-29.3L147.2,59L147.2,88.3z"/>
	<path class="st0" d="M293.6,159.4c0,1.8-0.6,3.6-1.8,5.1L260,204.3c-1.6,2-3.9,3.1-6.4,3.1c-4.5-0.2-8-3.3-8-8V62.5l-17.9,22.1
		c-1.5,1.9-3.8,3.1-6.2,3.1c-4.5,0-8.1-3.7-8.1-8.2c0-1.8,0.6-3.6,1.8-5l32-39.8c1.5-2,3.9-3.1,6.4-3.1c4.4,0.1,7.9,3.6,8,8v136.8
		l17.5-22.1c1.6-1.9,3.9-3,6.4-3.1c4.5-0.1,8.1,3.5,8.2,8C293.6,159.3,293.6,159.4,293.6,159.4z"/>
	<path class="st0" d="M314.2,207.6c-3.3-0.9-5.5-4-5.4-7.4V40.6c0-3.4,2.2-6.4,5.4-7.4c3.2-1.2,6.8-0.1,8.7,2.7l63.9,79.6
		c2.3,3,2.3,7.1,0,10.1l-63.9,79.6c-1.5,1.9-3.8,3-6.2,2.9C315.9,208,315,207.8,314.2,207.6z M324.7,63.3v114.2l45.6-57.1
		L324.7,63.3z"/>
</g>
</svg>
