<svg id="hulplijnen" xmlns="http://www.w3.org/2000/svg" xmlns:xlink="http://www.w3.org/1999/xlink" viewBox="0 0 168.29 177.94"><defs><style>.cls-1{fill:#fff;}.cls-2{fill:url(#Naamloos_verloop_7);}</style><linearGradient id="Naamloos_verloop_7" x1="-159.95" y1="-138.03" x2="-28.39" y2="-138.03" gradientUnits="userSpaceOnUse"><stop offset="0" stop-color="#daa520"/><stop offset="1" stop-color="#af7b08"/></linearGradient></defs><path class="cls-1" d="M-175.26-230.81l35,19.74a45,45,0,0,0,4,2.26c3.44,1.51,5.74.32,8.59-1.28l19.77-11.17L-91-230.81h-6.31l35,19.74a45,45,0,0,0,4,2.26c3.44,1.51,5.74.32,8.59-1.28L-30-221.26l16.92-9.55c7-3.95.71-14.75-6.31-10.79l-39,22H-52l-35-19.74a45,45,0,0,0-4-2.26c-3.44-1.51-5.74-.32-8.59,1.29l-19.77,11.16-16.91,9.55H-130l-39-22c-7-4-13.32,6.83-6.31,10.79Z" transform="translate(178.31 242.46)"/><path class="cls-2" d="M-110.81-184.36l-48.78,48.77m62.32,62.41-62.68-62.68M-76-149.58l-33.7-33.7m5.91,63.8,29.06-29m45.33,9.8L-96.12-72m3.47-132,64.26,64.26" transform="translate(178.31 242.46)"/><path class="cls-1" d="M-116.12-189.67l-48.77,48.78c-6.83,6.83,3.77,17.44,10.61,10.6l48.77-48.77c6.83-6.83-3.77-17.44-10.61-10.61Z" transform="translate(178.31 242.46)"/><path class="cls-1" d="M-92-78.48l-54.8-54.8-7.88-7.88c-6.84-6.84-17.45,3.77-10.61,10.6l54.8,54.8,7.88,7.88C-95.74-61-85.13-71.65-92-78.48Z" transform="translate(178.31 242.46)"/><path class="cls-1" d="M-70.72-154.88l-33.71-33.7c-6.83-6.84-17.44,3.77-10.6,10.61l33.7,33.7c6.83,6.83,17.44-3.77,10.61-10.61Z" transform="translate(178.31 242.46)"/><path class="cls-1" d="M-98.52-114.17l29.06-29.06c6.83-6.83-3.77-17.44-10.61-10.6l-29.05,29.05c-6.84,6.84,3.77,17.45,10.6,10.61Z" transform="translate(178.31 242.46)"/><path class="cls-1" d="M-34.73-144-93-85.73l-8.4,8.39c-6.83,6.84,3.77,17.45,10.61,10.61L-32.51-125l8.39-8.39c6.83-6.83-3.77-17.44-10.61-10.61Z" transform="translate(178.31 242.46)"/><path class="cls-1" d="M-98-198.72l56.13,56.12,8.13,8.14c6.84,6.83,17.45-3.77,10.61-10.61l-56.12-56.12-8.14-8.14c-6.84-6.84-17.44,3.77-10.61,10.61Z" transform="translate(178.31 242.46)"/></svg>