<svg id="Layer_1" data-name="Layer 1" xmlns="http://www.w3.org/2000/svg" viewBox="0 0 600 242.5"><defs><style>.cls-1{fill:#e5af40;}.cls-2{fill:none;}.cls-3{isolation:isolate;}</style></defs><g id="hulplijnen"><path class="cls-1" d="M400.7,63.7c12.6,10.3,25,20.8,37.7,31.1a6.86,6.86,0,0,0,9.1,0c12.6-10.3,25-20.8,37.7-31.1h-9.1c12.6,10.3,25,20.8,37.7,31.1a6.86,6.86,0,0,0,9.1,0c12.6-10.3,25-20.8,37.7-31.1,6.4-5.2-2.7-14.6-9.1-9.1-12.6,10.3-25,20.8-37.7,31.1h9.1c-12.6-10.3-25-20.8-37.7-31.1a6.86,6.86,0,0,0-9.1,0c-12.6,10.3-25,20.8-37.7,31.1h9.1c-12.6-10.3-25-20.8-37.7-31.1-6.2-5.5-15.6,3.8-9.1,9.1Z" transform="translate(0 -52.4)"/><path class="cls-1" d="M457.5,108.3l-47.2,47.2c-7.6,7.6,4.1,19.2,11.7,11.7L469.2,120c7.6-7.6-4.3-19.2-11.7-11.7Z" transform="translate(0 -52.4)"/><path class="cls-1" d="M482.2,215.7l-60.6-60.6c-7.6-7.6-19.2,4.1-11.7,11.7l60.6,60.6c7.6,7.6,19.3-4.1,11.7-11.7Z" transform="translate(0 -52.4)"/><path class="cls-1" d="M502.8,141.9l-32.6-32.6c-7.6-7.6-19.2,4.1-11.7,11.7l32.6,32.6c7.6,7.6,19.3-4.1,11.7-11.7Z" transform="translate(0 -52.4)"/><path class="cls-1" d="M476,182.7l28.2-28.2c7.6-7.6-4.1-19.2-11.7-11.7L464.3,171c-7.5,7.4,4.1,19.3,11.7,11.7Z" transform="translate(0 -52.4)"/><path class="cls-1" d="M536.2,152.4l-64.5,64.5c-7.6,7.6,4.1,19.2,11.7,11.7l64.5-64.5c7.5-7.6-4.1-19.2-11.7-11.7Z" transform="translate(0 -52.4)"/><path class="cls-1" d="M475,101l62.1,62.1c7.6,7.6,19.2-4.1,11.7-11.7L486.7,89.3c-7.6-7.6-19.3,4.1-11.7,11.7Z" transform="translate(0 -52.4)"/></g><g id="Laag_2" data-name="Laag 2"><path class="cls-1" d="M66.9,142.9l57.9,72.2a8.16,8.16,0,0,1,1.7,5,8,8,0,0,1-8,8,8.57,8.57,0,0,1-6.4-3.1L63,163.3v56.9a8.07,8.07,0,0,1-8.2,8,8.15,8.15,0,0,1-8-8V60.2a8.12,8.12,0,0,1,8-7.8,7.49,7.49,0,0,1,4.5,1.4l63.5,40.6a8.5,8.5,0,0,1,3.7,6.6,8.6,8.6,0,0,1-3.9,7ZM63.2,75v51.7l40.6-25.4Z" transform="translate(0 -52.4)"/><path class="cls-1" d="M217.3,118.6a7.19,7.19,0,0,1,2.3,5.4v96.1a8.1,8.1,0,0,1-16.2,0V179.3L156,131.8v88.3a7.9,7.9,0,0,1-8,8,8.07,8.07,0,0,1-8.2-8V60.4a7.54,7.54,0,0,1,5-7.2,7.33,7.33,0,0,1,8.5,1.7Zm-61.1-9.5,47.6,47.6V127.4L156.2,79.8v29.3Z" transform="translate(0 -52.4)"/><path class="cls-1" d="M302.6,180.2a8.61,8.61,0,0,1-1.7,5L269,225a8.41,8.41,0,0,1-6.4,3.1c-4.5-.2-8-3.3-8-8V83.3l-17.9,22.1a8,8,0,0,1-6.2,3.1,8.24,8.24,0,0,1-8.2-8.2,8.61,8.61,0,0,1,1.7-5l32-39.8a8.11,8.11,0,0,1,6.4-3.1,8.3,8.3,0,0,1,8,8V197.3l17.5-22.1a9.13,9.13,0,0,1,6.4-3.1A8,8,0,0,1,302.6,180.2Z" transform="translate(0 -52.4)"/><path class="cls-1" d="M323.2,228.3a7.53,7.53,0,0,1-5.4-7.4V61.4a7.71,7.71,0,0,1,5.4-7.4,7.35,7.35,0,0,1,8.7,2.7l63.9,79.6a8.25,8.25,0,0,1,0,10.1L331.9,226a7.82,7.82,0,0,1-6.2,2.9ZM333.7,84.1V198.3l45.6-57.1Z" transform="translate(0 -52.4)"/></g><rect class="cls-2" y="199.6" width="600" height="42.9"/><g class="cls-3"><path class="cls-1" d="M43.9,253.52V287a1.68,1.68,0,0,1-3.36,0V271.92h-10V287a1.66,1.66,0,0,1-1.66,1.66,1.69,1.69,0,0,1-1.7-1.66V253.52a1.68,1.68,0,0,1,1.7-1.65,1.65,1.65,0,0,1,1.66,1.65v6.72h10v-6.72a1.68,1.68,0,0,1,3.36,0ZM30.51,268.61h10v-5h-10Z" transform="translate(0 -52.4)"/><path class="cls-1" d="M52.91,271.92l11.23,14a1.62,1.62,0,0,1,.37,1.05,1.72,1.72,0,0,1-1.66,1.66,1.69,1.69,0,0,1-1.33-.64l-13.35-16.7a1.5,1.5,0,0,1-.41-1.06,1.48,1.48,0,0,1,.41-1.06l13.35-16.7a1.69,1.69,0,0,1,1.33-.64,1.71,1.71,0,0,1,1.66,1.65,1.64,1.64,0,0,1-.37,1.06l-11.23,14h9.94a1.66,1.66,0,1,1,0,3.31Z" transform="translate(0 -52.4)"/><path class="cls-1" d="M72.79,252.51l6.67,8.33a1.82,1.82,0,0,1,.36,1.05,1.68,1.68,0,0,1-1.65,1.71,1.87,1.87,0,0,1-1.34-.65l-3.68-4.64V287a1.65,1.65,0,0,1-1.65,1.66A1.69,1.69,0,0,1,69.8,287v-28.7L66.07,263a1.75,1.75,0,0,1-1.29.65,1.73,1.73,0,0,1-1.7-1.71,1.84,1.84,0,0,1,.37-1.05l6.71-8.33a1.64,1.64,0,0,1,1.29-.64A1.73,1.73,0,0,1,72.79,252.51Z" transform="translate(0 -52.4)"/><path class="cls-1" d="M110.14,253.52V287a1.66,1.66,0,0,1-1.66,1.66,1.69,1.69,0,0,1-1.7-1.66V270.87l-5-6.31-5,6.31V287a1.66,1.66,0,0,1-1.66,1.66,1.69,1.69,0,0,1-1.7-1.66V253.52a1.68,1.68,0,0,1,1.7-1.65,1.61,1.61,0,0,1,1.29.64l5.38,6.72,5.39-6.72a1.71,1.71,0,0,1,1.33-.64A1.67,1.67,0,0,1,110.14,253.52Zm-13.39,12,2.9-3.59-2.9-3.58Zm7.18-3.59,2.85,3.59v-7.17Z" transform="translate(0 -52.4)"/><path class="cls-1" d="M130.61,254.17l-6.54,16.42V287a1.69,1.69,0,0,1-1.7,1.66,1.65,1.65,0,0,1-1.65-1.66V270.59l-6.58-16.42a1.65,1.65,0,0,1,.92-2.17,1.62,1.62,0,0,1,2.16.92l3.5,8.65v-8a1.64,1.64,0,0,1,1.65-1.65,1.68,1.68,0,0,1,1.7,1.65v8l3.45-8.65a1.67,1.67,0,0,1,3.09,1.25Z" transform="translate(0 -52.4)"/><path class="cls-1" d="M140.82,252.51l6.67,8.33a1.84,1.84,0,0,1,.37,1.05,1.69,1.69,0,0,1-1.66,1.71,1.85,1.85,0,0,1-1.33-.65l-3.68-4.64V287a1.66,1.66,0,0,1-1.66,1.66,1.69,1.69,0,0,1-1.7-1.66v-28.7L134.1,263a1.75,1.75,0,0,1-1.29.65,1.73,1.73,0,0,1-1.7-1.71,1.84,1.84,0,0,1,.37-1.05l6.72-8.33a1.61,1.61,0,0,1,1.29-.64A1.71,1.71,0,0,1,140.82,252.51Z" transform="translate(0 -52.4)"/><path class="cls-1" d="M167.91,253.52V287a1.65,1.65,0,0,1-1.65,1.66,1.67,1.67,0,0,1-1.71-1.66V271.92h-10V287a1.66,1.66,0,0,1-1.66,1.66,1.69,1.69,0,0,1-1.7-1.66V253.52a1.68,1.68,0,0,1,1.7-1.65,1.65,1.65,0,0,1,1.66,1.65v6.72h10v-6.72a1.66,1.66,0,0,1,1.71-1.65A1.64,1.64,0,0,1,167.91,253.52Zm-13.38,15.09h10v-5h-10Z" transform="translate(0 -52.4)"/><path class="cls-1" d="M188.52,278.64a1.84,1.84,0,0,1-.37,1.06L181.48,288a1.71,1.71,0,0,1-1.33.64,1.66,1.66,0,0,1-1.66-1.66v-28.7L174.77,263a1.62,1.62,0,0,1-1.29.65,1.73,1.73,0,0,1-1.7-1.71,1.82,1.82,0,0,1,.36-1.05l6.72-8.33a1.64,1.64,0,0,1,1.33-.64,1.71,1.71,0,0,1,1.66,1.65v28.71l3.68-4.65a1.85,1.85,0,0,1,1.34-.64A1.68,1.68,0,0,1,188.52,278.64Z" transform="translate(0 -52.4)"/><path class="cls-1" d="M203.06,271.42,189.76,288a1.71,1.71,0,0,1-1.33.64,1.68,1.68,0,0,1-1.66-1.66,1.84,1.84,0,0,1,.37-1.05L198.32,272h-9.75a1.69,1.69,0,0,1-1.8-1.66,1.84,1.84,0,0,1,.37-1.06l13.34-16.79a1.56,1.56,0,0,1,1.29-.64,1.65,1.65,0,0,1,1.66,1.65,1.84,1.84,0,0,1-.37,1.06L191.88,268.7h9.89a1.66,1.66,0,0,1,1.66,1.66A1.84,1.84,0,0,1,203.06,271.42Z" transform="translate(0 -52.4)"/><path class="cls-1" d="M210.05,270.27,222.61,286A1.61,1.61,0,0,1,223,287a1.71,1.71,0,0,1-1.65,1.66A1.73,1.73,0,0,1,220,288l-13.34-16.7a1.5,1.5,0,0,1-.41-1.06,1.48,1.48,0,0,1,.41-1.06L220,252.51a1.73,1.73,0,0,1,1.34-.64,1.71,1.71,0,0,1,1.65,1.65,1.64,1.64,0,0,1-.36,1.06Z" transform="translate(0 -52.4)"/><path class="cls-1" d="M242.57,253.52V287a1.68,1.68,0,0,1-3.36,0V271.92h-10V287a1.65,1.65,0,0,1-1.65,1.66,1.69,1.69,0,0,1-1.7-1.66V253.52a1.68,1.68,0,0,1,1.7-1.65,1.64,1.64,0,0,1,1.65,1.65v6.72h10v-6.72a1.68,1.68,0,0,1,3.36,0Zm-13.39,15.09h10v-5h-10Z" transform="translate(0 -52.4)"/><path class="cls-1" d="M251.58,271.92l11.23,14a1.62,1.62,0,0,1,.37,1.05,1.67,1.67,0,0,1-3,1l-13.34-16.7a1.46,1.46,0,0,1-.42-1.06,1.45,1.45,0,0,1,.42-1.06l13.34-16.7a1.67,1.67,0,0,1,3,1,1.64,1.64,0,0,1-.37,1.06l-11.23,14h9.94a1.66,1.66,0,1,1,0,3.31Z" transform="translate(0 -52.4)"/><path class="cls-1" d="M280.29,270.27,292.85,286a1.62,1.62,0,0,1,.37,1.05,1.72,1.72,0,0,1-1.66,1.66,1.69,1.69,0,0,1-1.33-.64l-13.35-16.7a1.5,1.5,0,0,1-.41-1.06,1.48,1.48,0,0,1,.41-1.06l13.35-16.7a1.69,1.69,0,0,1,1.33-.64,1.71,1.71,0,0,1,1.66,1.65,1.64,1.64,0,0,1-.37,1.06Z" transform="translate(0 -52.4)"/><path class="cls-1" d="M307.75,270.87l-6.67,16.74a1.65,1.65,0,0,1-3.08,0l-6.72-16.7a1.64,1.64,0,0,1-.14-.64,1.69,1.69,0,0,1,.14-.65l6.67-16.7a1.71,1.71,0,0,1,1.57-1,1.68,1.68,0,0,1,1.56,1l6.67,16.7a1.69,1.69,0,0,1,.14.65A1.33,1.33,0,0,1,307.75,270.87Zm-8.23,11.63,4.87-12.23L299.52,258l-4.88,12.24Z" transform="translate(0 -52.4)"/><path class="cls-1" d="M312.21,288.72a1.6,1.6,0,0,1-1.15-1.57V253.71a1.68,1.68,0,0,1,1.15-1.57,1.62,1.62,0,0,1,1.84.55l13.39,16.7a1.66,1.66,0,0,1,0,2.12l-13.39,16.7a1.58,1.58,0,0,1-1.29.6A2.74,2.74,0,0,1,312.21,288.72Zm2.21-30.23v23.92l9.57-12Z" transform="translate(0 -52.4)"/><path class="cls-1" d="M335.49,271.92l11.22,14a1.62,1.62,0,0,1,.37,1.05,1.67,1.67,0,0,1-3,1l-13.34-16.7a1.46,1.46,0,0,1-.41-1.06,1.44,1.44,0,0,1,.41-1.06l13.34-16.7a1.67,1.67,0,0,1,3,1,1.64,1.64,0,0,1-.37,1.06l-11.22,14h9.94a1.66,1.66,0,0,1,0,3.31Z" transform="translate(0 -52.4)"/><path class="cls-1" d="M355.27,271.92l11.22,14a1.62,1.62,0,0,1,.37,1.05,1.67,1.67,0,0,1-3,1l-13.34-16.7a1.46,1.46,0,0,1-.41-1.06,1.44,1.44,0,0,1,.41-1.06l13.34-16.7a1.67,1.67,0,0,1,3,1,1.64,1.64,0,0,1-.37,1.06l-11.22,14h9.94a1.66,1.66,0,0,1,0,3.31Z" transform="translate(0 -52.4)"/><path class="cls-1" d="M374,270.82,386.18,286a1.84,1.84,0,0,1,.37,1.05,1.68,1.68,0,0,1-1.66,1.66,1.71,1.71,0,0,1-1.33-.64L373.25,275.1V287a1.68,1.68,0,0,1-3.36,0V253.48a1.67,1.67,0,0,1,2.58-1.34l13.3,8.51a1.66,1.66,0,0,1,0,2.85Zm-.79-14.26v10.81l8.51-5.34Z" transform="translate(0 -52.4)"/><path class="cls-1" d="M415.85,265.71a1.59,1.59,0,0,1,.51,1.15V287a1.68,1.68,0,0,1-3.36,0v-8.55l-10-10V287a1.65,1.65,0,0,1-1.65,1.66,1.69,1.69,0,0,1-1.7-1.66V253.52a1.64,1.64,0,0,1,1-1.52,1.59,1.59,0,0,1,1.8.37Zm-12.84-2,10,10v-6.17l-10-10Z" transform="translate(0 -52.4)"/><path class="cls-1" d="M434.48,253.89l-6.67,33.4a1.68,1.68,0,0,1-3.31,0l-6.67-33.4c0-.14-.05-.23-.05-.37a1.68,1.68,0,0,1,1.7-1.65,1.61,1.61,0,0,1,1.61,1.33l5.06,25.26,5.06-25.26a1.68,1.68,0,0,1,3.32.32A1,1,0,0,1,434.48,253.89Z" transform="translate(0 -52.4)"/><path class="cls-1" d="M451.87,270.87l-6.67,16.74a1.65,1.65,0,0,1-3.08,0l-6.72-16.7a1.64,1.64,0,0,1-.14-.64,1.69,1.69,0,0,1,.14-.65l6.67-16.7a1.69,1.69,0,0,1,3.13,0l6.67,16.7a1.69,1.69,0,0,1,.14.65A1.33,1.33,0,0,1,451.87,270.87Zm-8.24,11.63,4.88-12.23L443.63,258l-4.87,12.24Z" transform="translate(0 -52.4)"/><path class="cls-1" d="M471.79,287a1.66,1.66,0,0,1-1.66,1.66,1.63,1.63,0,0,1-1.29-.64l-10.3-12.89V287a1.7,1.7,0,0,1-1.71,1.66,1.68,1.68,0,0,1-1.65-1.66V253.57a1.69,1.69,0,0,1,1.65-1.7,1.71,1.71,0,0,1,1.34.64l10.3,13.11V253.8a1.66,1.66,0,0,1,3.32,0Zm-13.25-28.7v11.5l9.93,12.47V271Z" transform="translate(0 -52.4)"/><path class="cls-1" d="M485.36,252.51l6.67,8.33a1.82,1.82,0,0,1,.36,1.05,1.68,1.68,0,0,1-1.65,1.71,1.87,1.87,0,0,1-1.34-.65l-3.68-4.64V287a1.65,1.65,0,0,1-1.65,1.66,1.69,1.69,0,0,1-1.7-1.66v-28.7L478.64,263a1.75,1.75,0,0,1-1.29.65,1.73,1.73,0,0,1-1.7-1.71,1.84,1.84,0,0,1,.37-1.05l6.71-8.33a1.64,1.64,0,0,1,1.29-.64A1.73,1.73,0,0,1,485.36,252.51Z" transform="translate(0 -52.4)"/><path class="cls-1" d="M512.45,278.64a1.68,1.68,0,0,1-.83,1.43l-13.34,8.32a1.94,1.94,0,0,1-.87.28A1.73,1.73,0,0,1,495.7,287V253.52a1.69,1.69,0,0,1,1.71-1.65,1.64,1.64,0,0,1,1.65,1.65V284l10-6.26v-24.2a1.68,1.68,0,0,1,1.7-1.65,1.65,1.65,0,0,1,1.66,1.65Z" transform="translate(0 -52.4)"/><path class="cls-1" d="M532.74,278.64a1.7,1.7,0,0,1-.83,1.43l-13.34,8.32a2,2,0,0,1-.88.28A1.72,1.72,0,0,1,516,287V253.52a1.68,1.68,0,0,1,1.7-1.65,1.65,1.65,0,0,1,1.66,1.65V284l10-6.26v-24.2a1.68,1.68,0,0,1,1.7-1.65,1.65,1.65,0,0,1,1.66,1.65Z" transform="translate(0 -52.4)"/><path class="cls-1" d="M540.42,270.82,552.56,286a1.84,1.84,0,0,1,.37,1.05,1.68,1.68,0,0,1-1.66,1.66,1.71,1.71,0,0,1-1.33-.64L539.63,275.1V287a1.68,1.68,0,0,1-3.35,0V253.48a1.66,1.66,0,0,1,2.57-1.34l13.3,8.51a1.66,1.66,0,0,1,0,2.85Zm-.79-14.26v10.81l8.51-5.34Z" transform="translate(0 -52.4)"/></g></svg>