<svg id="clouds" xmlns="http://www.w3.org/2000/svg" viewBox="0 0 1000 256.62"><defs><style>.cls-1{fill:#fff;}</style></defs><ellipse class="cls-1" cx="125.24" cy="128.09" rx="48.71" ry="28.59"/><ellipse class="cls-1" cx="283.53" cy="145.47" rx="144.53" ry="111.15"/><ellipse class="cls-1" cx="466.18" cy="111.15" rx="144.53" ry="111.15"/><ellipse class="cls-1" cx="890.65" cy="111.15" rx="48.71" ry="28.59"/><rect class="cls-1" y="120.21" width="1000" height="136.41"/><path class="cls-1" d="M0,779.88V947.29c60.39,0,109.35-37.47,109.35-83.7S60.39,779.88,0,779.88Z" transform="translate(0 -743.38)"/><path class="cls-1" d="M1000,779.88c-60.39,0-109.35,37.48-109.35,83.71s49,83.7,109.35,83.7Z" transform="translate(0 -743.38)"/><path class="cls-1" d="M895.61,1000c20.83-23.25,32.74-50.17,32.74-78.85,0-88-112-159.33-250.14-159.33S428.06,833.16,428.06,921.15c0,28.68,11.91,55.6,32.74,78.85Z" transform="translate(0 -743.38)"/></svg>