<svg id="clouds" xmlns="http://www.w3.org/2000/svg" viewBox="0 0 1000 256.62"><defs><style>.cls-1{fill:#fff;}</style></defs><ellipse class="cls-1" cx="874.76" cy="128.53" rx="48.71" ry="28.59"/><ellipse class="cls-1" cx="716.47" cy="111.15" rx="144.53" ry="111.15"/><ellipse class="cls-1" cx="533.82" cy="145.47" rx="144.53" ry="111.15"/><ellipse class="cls-1" cx="109.35" cy="145.47" rx="48.71" ry="28.59"/><rect class="cls-1" width="1000" height="136.41"/><path class="cls-1" d="M1000,220.12V52.71c-60.39,0-109.35,37.47-109.35,83.7S939.61,220.12,1000,220.12Z"/><path class="cls-1" d="M0,220.12c60.39,0,109.35-37.48,109.35-83.71S60.35,52.71,0,52.71Z"/><path class="cls-1" d="M104.39,0C83.56,23.25,71.65,50.17,71.65,78.85c0,88,112,159.33,250.14,159.33S571.94,166.84,571.94,78.85C571.94,50.17,560,23.25,539.2,0Z"/></svg>