<?xml version="1.0" encoding="utf-8"?>
<!-- Generator: Adobe Illustrator 24.2.0, SVG Export Plug-In . SVG Version: 6.00 Build 0)  -->
<svg version="1.1" id="clouds" xmlns="http://www.w3.org/2000/svg" xmlns:xlink="http://www.w3.org/1999/xlink" x="0px" y="0px"
	 viewBox="0 0 1000 256.6" style="enable-background:new 0 0 1000 256.6;" xml:space="preserve">
<style type="text/css">
	.st0{fill:#222222;}
</style>
<ellipse class="st0" cx="125.2" cy="128.1" rx="48.7" ry="28.6"/>
<ellipse class="st0" cx="283.5" cy="145.5" rx="144.5" ry="111.1"/>
<ellipse class="st0" cx="466.2" cy="111.2" rx="144.5" ry="111.2"/>
<ellipse class="st0" cx="890.7" cy="111.2" rx="48.7" ry="28.6"/>
<rect y="120.2" class="st0" width="1000" height="136.4"/>
<path class="st0" d="M0,36.5v167.4c60.4,0,109.3-37.5,109.3-83.7S60.4,36.5,0,36.5z"/>
<path class="st0" d="M1000,36.5c-60.4,0-109.3,37.5-109.3,83.7s49,83.7,109.3,83.7V36.5z"/>
<path class="st0" d="M895.6,256.6c20.8-23.3,32.7-50.2,32.7-78.9c0-88-112-159.3-250.1-159.3S428.1,89.8,428.1,177.8
	c0,28.7,11.9,55.6,32.7,78.8H895.6z"/>
</svg>
