<?xml version="1.0" encoding="utf-8"?>
<!-- Generator: Adobe Illustrator 24.2.0, SVG Export Plug-In . SVG Version: 6.00 Build 0)  -->
<svg version="1.1" id="clouds" xmlns="http://www.w3.org/2000/svg" xmlns:xlink="http://www.w3.org/1999/xlink" x="0px" y="0px"
	 viewBox="0 0 1000 256.6" style="enable-background:new 0 0 1000 256.6;" xml:space="preserve">
<style type="text/css">
	.st0{fill:#222222;}
</style>
<ellipse class="st0" cx="874.8" cy="128.5" rx="48.7" ry="28.6"/>
<ellipse class="st0" cx="716.5" cy="111.2" rx="144.5" ry="111.2"/>
<ellipse class="st0" cx="533.8" cy="145.5" rx="144.5" ry="111.1"/>
<ellipse class="st0" cx="109.3" cy="145.5" rx="48.7" ry="28.6"/>
<rect class="st0" width="1000" height="136.4"/>
<path class="st0" d="M1000,220.1V52.7c-60.4,0-109.3,37.5-109.3,83.7S939.6,220.1,1000,220.1z"/>
<path class="st0" d="M0,220.1c60.4,0,109.3-37.5,109.3-83.7S60.3,52.7,0,52.7V220.1z"/>
<path class="st0" d="M104.4,0C83.6,23.3,71.7,50.2,71.7,78.8c0,88,112,159.3,250.1,159.3s250.1-71.3,250.1-159.3
	c0-28.7-11.9-55.6-32.7-78.8H104.4z"/>
</svg>
